<mxfile host="app.diagrams.net" modified="2024-02-23T17:22:17.866Z" agent="5.0 (Windows NT 10.0; Win64; x64) AppleWebKit/537.36 (KHTML, like Gecko) Chrome/120.0.0.0 Safari/537.36 OPR/106.0.0.0" etag="st-ygUA2aq2Mly_bWP_V" version="20.7.4" type="github">
  <diagram name="Page-1" id="_j_c3d4jxuQb17CnCA2O">
    <mxGraphModel dx="1108" dy="672" grid="1" gridSize="10" guides="1" tooltips="1" connect="1" arrows="1" fold="1" page="1" pageScale="1" pageWidth="850" pageHeight="1100" math="0" shadow="0">
      <root>
        <mxCell id="0" />
        <mxCell id="1" parent="0" />
        <mxCell id="N17FAPkJP5qi7yZppKSp-1" value="Клиент" style="shape=umlActor;verticalLabelPosition=bottom;verticalAlign=top;html=1;outlineConnect=0;" vertex="1" parent="1">
          <mxGeometry x="170" y="190" width="30" height="60" as="geometry" />
        </mxCell>
        <mxCell id="N17FAPkJP5qi7yZppKSp-2" value="Физ лицо" style="shape=umlActor;verticalLabelPosition=bottom;verticalAlign=top;html=1;outlineConnect=0;" vertex="1" parent="1">
          <mxGeometry x="40" y="140" width="30" height="60" as="geometry" />
        </mxCell>
        <mxCell id="N17FAPkJP5qi7yZppKSp-4" value="Юр лицо" style="shape=umlActor;verticalLabelPosition=bottom;verticalAlign=top;html=1;outlineConnect=0;" vertex="1" parent="1">
          <mxGeometry x="40" y="260" width="30" height="60" as="geometry" />
        </mxCell>
        <mxCell id="N17FAPkJP5qi7yZppKSp-14" value="Открыть счет" style="ellipse;whiteSpace=wrap;html=1;" vertex="1" parent="1">
          <mxGeometry x="140" y="30" width="130" height="40" as="geometry" />
        </mxCell>
        <mxCell id="N17FAPkJP5qi7yZppKSp-15" value="Снять деньги" style="ellipse;whiteSpace=wrap;html=1;" vertex="1" parent="1">
          <mxGeometry x="335" y="370" width="130" height="40" as="geometry" />
        </mxCell>
        <mxCell id="N17FAPkJP5qi7yZppKSp-21" value="Операционист" style="shape=umlActor;verticalLabelPosition=bottom;verticalAlign=top;html=1;" vertex="1" parent="1">
          <mxGeometry x="435" y="100" width="30" height="60" as="geometry" />
        </mxCell>
        <mxCell id="N17FAPkJP5qi7yZppKSp-22" value="Пополнить счет" style="ellipse;whiteSpace=wrap;html=1;" vertex="1" parent="1">
          <mxGeometry x="140" y="370" width="130" height="40" as="geometry" />
        </mxCell>
        <mxCell id="N17FAPkJP5qi7yZppKSp-23" value="Закрыть счет" style="ellipse;whiteSpace=wrap;html=1;" vertex="1" parent="1">
          <mxGeometry x="335" y="30" width="130" height="40" as="geometry" />
        </mxCell>
        <mxCell id="N17FAPkJP5qi7yZppKSp-24" value="Кассир&lt;br&gt;" style="shape=umlActor;verticalLabelPosition=bottom;verticalAlign=top;html=1;" vertex="1" parent="1">
          <mxGeometry x="290" y="290" width="30" height="60" as="geometry" />
        </mxCell>
        <mxCell id="N17FAPkJP5qi7yZppKSp-25" value="Запросить банковскую операцию" style="ellipse;whiteSpace=wrap;html=1;" vertex="1" parent="1">
          <mxGeometry x="250" y="195" width="120" height="50" as="geometry" />
        </mxCell>
        <mxCell id="N17FAPkJP5qi7yZppKSp-27" value="" style="endArrow=none;html=1;rounded=0;entryX=0;entryY=0.5;entryDx=0;entryDy=0;" edge="1" parent="1" source="N17FAPkJP5qi7yZppKSp-1" target="N17FAPkJP5qi7yZppKSp-25">
          <mxGeometry width="50" height="50" relative="1" as="geometry">
            <mxPoint x="530" y="350" as="sourcePoint" />
            <mxPoint x="580" y="300" as="targetPoint" />
          </mxGeometry>
        </mxCell>
        <mxCell id="N17FAPkJP5qi7yZppKSp-38" value="" style="endArrow=none;html=1;rounded=0;" edge="1" parent="1" source="N17FAPkJP5qi7yZppKSp-23" target="N17FAPkJP5qi7yZppKSp-21">
          <mxGeometry width="50" height="50" relative="1" as="geometry">
            <mxPoint x="380" y="230" as="sourcePoint" />
            <mxPoint x="460" y="100" as="targetPoint" />
          </mxGeometry>
        </mxCell>
        <mxCell id="N17FAPkJP5qi7yZppKSp-40" value="" style="endArrow=none;html=1;rounded=0;" edge="1" parent="1" source="N17FAPkJP5qi7yZppKSp-25" target="N17FAPkJP5qi7yZppKSp-21">
          <mxGeometry width="50" height="50" relative="1" as="geometry">
            <mxPoint x="396.240094035599" y="169.6272906273698" as="sourcePoint" />
            <mxPoint x="480" y="160" as="targetPoint" />
          </mxGeometry>
        </mxCell>
        <mxCell id="N17FAPkJP5qi7yZppKSp-41" value="" style="endArrow=none;html=1;rounded=0;" edge="1" parent="1" source="N17FAPkJP5qi7yZppKSp-22" target="N17FAPkJP5qi7yZppKSp-24">
          <mxGeometry width="50" height="50" relative="1" as="geometry">
            <mxPoint x="370.0027403263491" y="281.921385767171" as="sourcePoint" />
            <mxPoint x="460" y="280" as="targetPoint" />
          </mxGeometry>
        </mxCell>
        <mxCell id="N17FAPkJP5qi7yZppKSp-42" value="" style="endArrow=none;html=1;rounded=0;" edge="1" parent="1" source="N17FAPkJP5qi7yZppKSp-15" target="N17FAPkJP5qi7yZppKSp-24">
          <mxGeometry width="50" height="50" relative="1" as="geometry">
            <mxPoint x="425.00119945523" y="378.1475202179081" as="sourcePoint" />
            <mxPoint x="595.37" y="310" as="targetPoint" />
          </mxGeometry>
        </mxCell>
        <mxCell id="N17FAPkJP5qi7yZppKSp-43" value="" style="endArrow=none;html=1;rounded=0;" edge="1" parent="1" source="N17FAPkJP5qi7yZppKSp-14" target="N17FAPkJP5qi7yZppKSp-21">
          <mxGeometry width="50" height="50" relative="1" as="geometry">
            <mxPoint x="509.9989504933517" y="44.98289801801938" as="sourcePoint" />
            <mxPoint x="571.72" y="110.00052631578947" as="targetPoint" />
          </mxGeometry>
        </mxCell>
        <mxCell id="N17FAPkJP5qi7yZppKSp-44" value="Проверка личности" style="ellipse;whiteSpace=wrap;html=1;" vertex="1" parent="1">
          <mxGeometry x="560" y="197.5" width="130" height="45" as="geometry" />
        </mxCell>
        <mxCell id="N17FAPkJP5qi7yZppKSp-45" value="Подтверждение операции" style="ellipse;whiteSpace=wrap;html=1;" vertex="1" parent="1">
          <mxGeometry x="335" y="470" width="130" height="45" as="geometry" />
        </mxCell>
        <mxCell id="N17FAPkJP5qi7yZppKSp-50" value="Extend" style="endArrow=classicThin;endSize=12;dashed=1;html=1;rounded=0;endFill=1;entryX=1;entryY=0.5;entryDx=0;entryDy=0;" edge="1" parent="1" source="N17FAPkJP5qi7yZppKSp-44" target="N17FAPkJP5qi7yZppKSp-25">
          <mxGeometry width="160" relative="1" as="geometry">
            <mxPoint x="410" y="270" as="sourcePoint" />
            <mxPoint x="700" y="276.15692307692296" as="targetPoint" />
          </mxGeometry>
        </mxCell>
        <mxCell id="N17FAPkJP5qi7yZppKSp-51" value="Include" style="endArrow=classicThin;endSize=12;dashed=1;html=1;rounded=0;endFill=1;" edge="1" parent="1" source="N17FAPkJP5qi7yZppKSp-44" target="N17FAPkJP5qi7yZppKSp-45">
          <mxGeometry width="160" relative="1" as="geometry">
            <mxPoint x="631.0116772343442" y="237.35788760555272" as="sourcePoint" />
            <mxPoint x="600" y="322.6399999999999" as="targetPoint" />
          </mxGeometry>
        </mxCell>
        <mxCell id="N17FAPkJP5qi7yZppKSp-52" value="Extend" style="endArrow=classicThin;endSize=12;dashed=1;html=1;rounded=0;endFill=1;" edge="1" parent="1" source="N17FAPkJP5qi7yZppKSp-14" target="N17FAPkJP5qi7yZppKSp-25">
          <mxGeometry width="160" relative="1" as="geometry">
            <mxPoint x="120" y="336.15692307692296" as="sourcePoint" />
            <mxPoint x="220" y="290.0030769230769" as="targetPoint" />
          </mxGeometry>
        </mxCell>
        <mxCell id="N17FAPkJP5qi7yZppKSp-53" value="Extend" style="endArrow=classicThin;endSize=12;dashed=1;html=1;rounded=0;endFill=1;" edge="1" parent="1" source="N17FAPkJP5qi7yZppKSp-22" target="N17FAPkJP5qi7yZppKSp-25">
          <mxGeometry width="160" relative="1" as="geometry">
            <mxPoint x="369.99594253147256" y="260.0044410254088" as="sourcePoint" />
            <mxPoint x="396.3117197421882" y="345.29555333414953" as="targetPoint" />
          </mxGeometry>
        </mxCell>
        <mxCell id="N17FAPkJP5qi7yZppKSp-54" value="Extend" style="endArrow=classicThin;endSize=12;dashed=1;html=1;rounded=0;endFill=1;" edge="1" parent="1" source="N17FAPkJP5qi7yZppKSp-15" target="N17FAPkJP5qi7yZppKSp-25">
          <mxGeometry width="160" relative="1" as="geometry">
            <mxPoint x="359.99594253147256" y="335.28555897459063" as="sourcePoint" />
            <mxPoint x="386.36014104087803" y="249.99704161714584" as="targetPoint" />
          </mxGeometry>
        </mxCell>
        <mxCell id="N17FAPkJP5qi7yZppKSp-55" value="Extend" style="endArrow=classicThin;endSize=12;dashed=1;html=1;rounded=0;endFill=1;" edge="1" parent="1" source="N17FAPkJP5qi7yZppKSp-23" target="N17FAPkJP5qi7yZppKSp-25">
          <mxGeometry width="160" relative="1" as="geometry">
            <mxPoint x="465.00251161689147" y="369.99953284064236" as="sourcePoint" />
            <mxPoint x="398.36457935466063" y="244.15309433658126" as="targetPoint" />
          </mxGeometry>
        </mxCell>
        <mxCell id="N17FAPkJP5qi7yZppKSp-56" value="" style="endArrow=none;html=1;rounded=0;" edge="1" parent="1" source="N17FAPkJP5qi7yZppKSp-21" target="N17FAPkJP5qi7yZppKSp-44">
          <mxGeometry x="0.4766" y="110" width="50" height="50" relative="1" as="geometry">
            <mxPoint x="509.99537401708193" y="69.92734646149506" as="sourcePoint" />
            <mxPoint x="521.1266666666668" y="110" as="targetPoint" />
            <mxPoint as="offset" />
          </mxGeometry>
        </mxCell>
        <mxCell id="N17FAPkJP5qi7yZppKSp-59" value="Include" style="endArrow=classicThin;endSize=12;dashed=1;html=1;rounded=0;endFill=1;" edge="1" parent="1" source="N17FAPkJP5qi7yZppKSp-45" target="N17FAPkJP5qi7yZppKSp-15">
          <mxGeometry width="160" relative="1" as="geometry">
            <mxPoint x="280.91795860560904" y="420.00038052591486" as="sourcePoint" />
            <mxPoint x="149.99781564905692" y="519.0789503196324" as="targetPoint" />
          </mxGeometry>
        </mxCell>
        <mxCell id="N17FAPkJP5qi7yZppKSp-60" value="Include" style="endArrow=classicThin;endSize=12;dashed=1;html=1;rounded=0;endFill=1;" edge="1" parent="1" source="N17FAPkJP5qi7yZppKSp-45" target="N17FAPkJP5qi7yZppKSp-22">
          <mxGeometry width="160" relative="1" as="geometry">
            <mxPoint x="260" y="470" as="sourcePoint" />
            <mxPoint x="260" y="410" as="targetPoint" />
          </mxGeometry>
        </mxCell>
        <mxCell id="N17FAPkJP5qi7yZppKSp-61" value="" style="endArrow=block;endSize=16;endFill=0;html=1;rounded=0;" edge="1" parent="1" source="N17FAPkJP5qi7yZppKSp-4" target="N17FAPkJP5qi7yZppKSp-1">
          <mxGeometry width="160" relative="1" as="geometry">
            <mxPoint x="20" y="520" as="sourcePoint" />
            <mxPoint x="180" y="520" as="targetPoint" />
          </mxGeometry>
        </mxCell>
        <mxCell id="N17FAPkJP5qi7yZppKSp-62" value="" style="endArrow=block;endSize=16;endFill=0;html=1;rounded=0;" edge="1" parent="1" source="N17FAPkJP5qi7yZppKSp-2" target="N17FAPkJP5qi7yZppKSp-1">
          <mxGeometry width="160" relative="1" as="geometry">
            <mxPoint x="70" y="169.996923076923" as="sourcePoint" />
            <mxPoint x="170" y="123.84307692307691" as="targetPoint" />
          </mxGeometry>
        </mxCell>
      </root>
    </mxGraphModel>
  </diagram>
</mxfile>
